<svg width="1600" height="2280" viewBox="0 0 1600 2280" fill="none" xmlns="http://www.w3.org/2000/svg">
  <rect width="1600" height="2280" fill="#0B0C0F"/>

  <rect x="40" y="40" width="1520" height="140" rx="28" fill="#14161B" stroke="#2A2D35"/>
  <text x="88" y="98" fill="#F5F7FA" font-family="Inter, SF Pro Display, Arial, sans-serif" font-size="34" font-weight="700">Stoic Calendar Color Reference</text>
  <text x="88" y="138" fill="#A4A9B6" font-family="Inter, SF Pro Text, Arial, sans-serif" font-size="18" font-weight="500">Figma import ready SVG. Primary source: app theme in constants/theme.ts. Dark palette comes first because the app is dark-mode-first.</text>

  <text x="56" y="236" fill="#F5F7FA" font-family="Inter, SF Pro Display, Arial, sans-serif" font-size="26" font-weight="700">Core UI Palette</text>
  <text x="56" y="268" fill="#8F95A3" font-family="Inter, SF Pro Text, Arial, sans-serif" font-size="16" font-weight="500">Actual in-app semantic colors used across surfaces, text, accents, separators, and destructive states.</text>

  <g transform="translate(40 300)">
    <rect width="280" height="220" rx="24" fill="#15181D" stroke="#2A2D35"/>
    <rect x="18" y="18" width="244" height="104" rx="18" fill="#000000"/>
    <text x="18" y="152" fill="#8F95A3" font-family="Inter, Arial, sans-serif" font-size="13" font-weight="700" letter-spacing="1.4">DARK BACKGROUND</text>
    <text x="18" y="181" fill="#F5F7FA" font-family="Inter, Arial, sans-serif" font-size="24" font-weight="700">#000000</text>
    <text x="18" y="202" fill="#A4A9B6" font-family="Inter, Arial, sans-serif" font-size="14" font-weight="500">Primary app background</text>
  </g>

  <g transform="translate(350 300)">
    <rect width="280" height="220" rx="24" fill="#15181D" stroke="#2A2D35"/>
    <rect x="18" y="18" width="244" height="104" rx="18" fill="#1C1C1E"/>
    <text x="18" y="152" fill="#8F95A3" font-family="Inter, Arial, sans-serif" font-size="13" font-weight="700" letter-spacing="1.4">SECONDARY BG</text>
    <text x="18" y="181" fill="#F5F7FA" font-family="Inter, Arial, sans-serif" font-size="24" font-weight="700">#1C1C1E</text>
    <text x="18" y="202" fill="#A4A9B6" font-family="Inter, Arial, sans-serif" font-size="14" font-weight="500">Cards and grouped surfaces</text>
  </g>

  <g transform="translate(660 300)">
    <rect width="280" height="220" rx="24" fill="#15181D" stroke="#2A2D35"/>
    <rect x="18" y="18" width="244" height="104" rx="18" fill="#2C2C2E"/>
    <text x="18" y="152" fill="#8F95A3" font-family="Inter, Arial, sans-serif" font-size="13" font-weight="700" letter-spacing="1.4">TERTIARY BG</text>
    <text x="18" y="181" fill="#F5F7FA" font-family="Inter, Arial, sans-serif" font-size="24" font-weight="700">#2C2C2E</text>
    <text x="18" y="202" fill="#A4A9B6" font-family="Inter, Arial, sans-serif" font-size="14" font-weight="500">Nested surfaces and borders</text>
  </g>

  <g transform="translate(970 300)">
    <rect width="280" height="220" rx="24" fill="#15181D" stroke="#2A2D35"/>
    <rect x="18" y="18" width="244" height="104" rx="18" fill="#FFFFFF"/>
    <text x="18" y="152" fill="#8F95A3" font-family="Inter, Arial, sans-serif" font-size="13" font-weight="700" letter-spacing="1.4">TEXT PRIMARY</text>
    <text x="18" y="181" fill="#F5F7FA" font-family="Inter, Arial, sans-serif" font-size="24" font-weight="700">#FFFFFF</text>
    <text x="18" y="202" fill="#A4A9B6" font-family="Inter, Arial, sans-serif" font-size="14" font-weight="500">Primary text on dark mode</text>
  </g>

  <g transform="translate(1280 300)">
    <rect width="280" height="220" rx="24" fill="#15181D" stroke="#2A2D35"/>
    <rect x="18" y="18" width="244" height="104" rx="18" fill="#8E8E93"/>
    <text x="18" y="152" fill="#8F95A3" font-family="Inter, Arial, sans-serif" font-size="13" font-weight="700" letter-spacing="1.4">TEXT SECONDARY</text>
    <text x="18" y="181" fill="#F5F7FA" font-family="Inter, Arial, sans-serif" font-size="24" font-weight="700">#8E8E93</text>
    <text x="18" y="202" fill="#A4A9B6" font-family="Inter, Arial, sans-serif" font-size="14" font-weight="500">Supporting labels and icons</text>
  </g>

  <g transform="translate(40 544)">
    <rect width="280" height="220" rx="24" fill="#15181D" stroke="#2A2D35"/>
    <rect x="18" y="18" width="244" height="104" rx="18" fill="#48484A"/>
    <text x="18" y="152" fill="#8F95A3" font-family="Inter, Arial, sans-serif" font-size="13" font-weight="700" letter-spacing="1.4">TEXT TERTIARY</text>
    <text x="18" y="181" fill="#F5F7FA" font-family="Inter, Arial, sans-serif" font-size="24" font-weight="700">#48484A</text>
    <text x="18" y="202" fill="#A4A9B6" font-family="Inter, Arial, sans-serif" font-size="14" font-weight="500">Muted metadata and borders</text>
  </g>

  <g transform="translate(350 544)">
    <rect width="280" height="220" rx="24" fill="#15181D" stroke="#2A2D35"/>
    <rect x="18" y="18" width="244" height="104" rx="18" fill="#007AFF"/>
    <text x="18" y="152" fill="#8F95A3" font-family="Inter, Arial, sans-serif" font-size="13" font-weight="700" letter-spacing="1.4">ACCENT</text>
    <text x="18" y="181" fill="#F5F7FA" font-family="Inter, Arial, sans-serif" font-size="24" font-weight="700">#007AFF</text>
    <text x="18" y="202" fill="#A4A9B6" font-family="Inter, Arial, sans-serif" font-size="14" font-weight="500">Selection and active states</text>
  </g>

  <g transform="translate(660 544)">
    <rect width="280" height="220" rx="24" fill="#15181D" stroke="#2A2D35"/>
    <rect x="18" y="18" width="244" height="104" rx="18" fill="#5AC8FA"/>
    <text x="18" y="152" fill="#8F95A3" font-family="Inter, Arial, sans-serif" font-size="13" font-weight="700" letter-spacing="1.4">ACCENT LIGHT</text>
    <text x="18" y="181" fill="#F5F7FA" font-family="Inter, Arial, sans-serif" font-size="24" font-weight="700">#5AC8FA</text>
    <text x="18" y="202" fill="#A4A9B6" font-family="Inter, Arial, sans-serif" font-size="14" font-weight="500">Secondary blue accent</text>
  </g>

  <g transform="translate(970 544)">
    <rect width="280" height="220" rx="24" fill="#15181D" stroke="#2A2D35"/>
    <rect x="18" y="18" width="244" height="104" rx="18" fill="#333333"/>
    <text x="18" y="152" fill="#8F95A3" font-family="Inter, Arial, sans-serif" font-size="13" font-weight="700" letter-spacing="1.4">DOT EMPTY</text>
    <text x="18" y="181" fill="#F5F7FA" font-family="Inter, Arial, sans-serif" font-size="24" font-weight="700">#333333</text>
    <text x="18" y="202" fill="#A4A9B6" font-family="Inter, Arial, sans-serif" font-size="14" font-weight="500">Default future-day dot color</text>
  </g>

  <g transform="translate(1280 544)">
    <rect width="280" height="220" rx="24" fill="#15181D" stroke="#2A2D35"/>
    <rect x="18" y="18" width="244" height="104" rx="18" fill="#38383A"/>
    <text x="18" y="152" fill="#8F95A3" font-family="Inter, Arial, sans-serif" font-size="13" font-weight="700" letter-spacing="1.4">SEPARATOR</text>
    <text x="18" y="181" fill="#F5F7FA" font-family="Inter, Arial, sans-serif" font-size="24" font-weight="700">#38383A</text>
    <text x="18" y="202" fill="#A4A9B6" font-family="Inter, Arial, sans-serif" font-size="14" font-weight="500">Dividers and structure</text>
  </g>

  <g transform="translate(40 788)">
    <rect width="280" height="220" rx="24" fill="#15181D" stroke="#2A2D35"/>
    <rect x="18" y="18" width="244" height="104" rx="18" fill="#FF453A"/>
    <text x="18" y="152" fill="#8F95A3" font-family="Inter, Arial, sans-serif" font-size="13" font-weight="700" letter-spacing="1.4">DESTRUCTIVE</text>
    <text x="18" y="181" fill="#F5F7FA" font-family="Inter, Arial, sans-serif" font-size="24" font-weight="700">#FF453A</text>
    <text x="18" y="202" fill="#A4A9B6" font-family="Inter, Arial, sans-serif" font-size="14" font-weight="500">Delete and danger actions</text>
  </g>

  <g transform="translate(350 788)">
    <rect width="280" height="220" rx="24" fill="#15181D" stroke="#2A2D35"/>
    <rect x="18" y="18" width="244" height="104" rx="18" fill="#FFFFFF"/>
    <text x="18" y="152" fill="#8F95A3" font-family="Inter, Arial, sans-serif" font-size="13" font-weight="700" letter-spacing="1.4">LIGHT BACKGROUND</text>
    <text x="18" y="181" fill="#F5F7FA" font-family="Inter, Arial, sans-serif" font-size="24" font-weight="700">#FFFFFF</text>
    <text x="18" y="202" fill="#A4A9B6" font-family="Inter, Arial, sans-serif" font-size="14" font-weight="500">Primary light mode surface</text>
  </g>

  <g transform="translate(660 788)">
    <rect width="280" height="220" rx="24" fill="#15181D" stroke="#2A2D35"/>
    <rect x="18" y="18" width="244" height="104" rx="18" fill="#F2F2F7"/>
    <text x="18" y="152" fill="#8F95A3" font-family="Inter, Arial, sans-serif" font-size="13" font-weight="700" letter-spacing="1.4">LIGHT SECONDARY</text>
    <text x="18" y="181" fill="#F5F7FA" font-family="Inter, Arial, sans-serif" font-size="24" font-weight="700">#F2F2F7</text>
    <text x="18" y="202" fill="#A4A9B6" font-family="Inter, Arial, sans-serif" font-size="14" font-weight="500">Grouped cards in light mode</text>
  </g>

  <g transform="translate(970 788)">
    <rect width="280" height="220" rx="24" fill="#15181D" stroke="#2A2D35"/>
    <rect x="18" y="18" width="244" height="104" rx="18" fill="#D1D1D6"/>
    <text x="18" y="152" fill="#8F95A3" font-family="Inter, Arial, sans-serif" font-size="13" font-weight="700" letter-spacing="1.4">LIGHT DOT EMPTY</text>
    <text x="18" y="181" fill="#F5F7FA" font-family="Inter, Arial, sans-serif" font-size="24" font-weight="700">#D1D1D6</text>
    <text x="18" y="202" fill="#A4A9B6" font-family="Inter, Arial, sans-serif" font-size="14" font-weight="500">Default empty dot in light mode</text>
  </g>

  <g transform="translate(1280 788)">
    <rect width="280" height="220" rx="24" fill="#15181D" stroke="#2A2D35"/>
    <rect x="18" y="18" width="244" height="104" rx="18" fill="#C7C7CC"/>
    <text x="18" y="152" fill="#8F95A3" font-family="Inter, Arial, sans-serif" font-size="13" font-weight="700" letter-spacing="1.4">LIGHT MUTED</text>
    <text x="18" y="181" fill="#F5F7FA" font-family="Inter, Arial, sans-serif" font-size="24" font-weight="700">#C7C7CC</text>
    <text x="18" y="202" fill="#A4A9B6" font-family="Inter, Arial, sans-serif" font-size="14" font-weight="500">Light tertiary text and border</text>
  </g>

  <g transform="translate(40 1032)">
    <rect width="280" height="220" rx="24" fill="#15181D" stroke="#2A2D35"/>
    <rect x="18" y="18" width="244" height="104" rx="18" fill="#E5E5EA"/>
    <text x="18" y="152" fill="#8F95A3" font-family="Inter, Arial, sans-serif" font-size="13" font-weight="700" letter-spacing="1.4">LIGHT CARD BORDER</text>
    <text x="18" y="181" fill="#F5F7FA" font-family="Inter, Arial, sans-serif" font-size="24" font-weight="700">#E5E5EA</text>
    <text x="18" y="202" fill="#A4A9B6" font-family="Inter, Arial, sans-serif" font-size="14" font-weight="500">Subtle edge color</text>
  </g>

  <g transform="translate(350 1032)">
    <rect width="280" height="220" rx="24" fill="#15181D" stroke="#2A2D35"/>
    <rect x="18" y="18" width="244" height="104" rx="18" fill="#C6C6C8"/>
    <text x="18" y="152" fill="#8F95A3" font-family="Inter, Arial, sans-serif" font-size="13" font-weight="700" letter-spacing="1.4">LIGHT SEPARATOR</text>
    <text x="18" y="181" fill="#F5F7FA" font-family="Inter, Arial, sans-serif" font-size="24" font-weight="700">#C6C6C8</text>
    <text x="18" y="202" fill="#A4A9B6" font-family="Inter, Arial, sans-serif" font-size="14" font-weight="500">Dividers in light mode</text>
  </g>

  <g transform="translate(660 1032)">
    <rect width="280" height="220" rx="24" fill="#15181D" stroke="#2A2D35"/>
    <rect x="18" y="18" width="244" height="104" rx="18" fill="#FF3B30"/>
    <text x="18" y="152" fill="#8F95A3" font-family="Inter, Arial, sans-serif" font-size="13" font-weight="700" letter-spacing="1.4">LIGHT DESTRUCTIVE</text>
    <text x="18" y="181" fill="#F5F7FA" font-family="Inter, Arial, sans-serif" font-size="24" font-weight="700">#FF3B30</text>
    <text x="18" y="202" fill="#A4A9B6" font-family="Inter, Arial, sans-serif" font-size="14" font-weight="500">Delete actions in light mode</text>
  </g>

  <rect x="40" y="1306" width="1520" height="536" rx="28" fill="#14161B" stroke="#2A2D35"/>
  <text x="56" y="1354" fill="#F5F7FA" font-family="Inter, SF Pro Display, Arial, sans-serif" font-size="26" font-weight="700">Grid Theme Palettes</text>
  <text x="56" y="1386" fill="#8F95A3" font-family="Inter, SF Pro Text, Arial, sans-serif" font-size="16" font-weight="500">Selectable timeline grid themes. Filled dots = elapsed time, empty dots = remaining time.</text>

  <g transform="translate(56 1422)">
    <rect width="350" height="178" rx="22" fill="#101318" stroke="#2A2D35"/>
    <text x="22" y="36" fill="#F5F7FA" font-family="Inter, Arial, sans-serif" font-size="22" font-weight="700">Classic Blue</text>
    <text x="22" y="70" fill="#8F95A3" font-family="Inter, Arial, sans-serif" font-size="13" font-weight="700">LIGHT</text>
    <rect x="22" y="82" width="136" height="44" rx="14" fill="#007AFF"/>
    <rect x="170" y="82" width="136" height="44" rx="14" fill="#D1D1D6"/>
    <text x="22" y="146" fill="#8F95A3" font-family="Inter, Arial, sans-serif" font-size="13" font-weight="700">DARK</text>
    <rect x="22" y="158" width="136" height="44" rx="14" fill="#007AFF"/>
    <rect x="170" y="158" width="136" height="44" rx="14" fill="#333333"/>
    <text x="92" y="110" text-anchor="middle" fill="#F5F7FA" font-family="Inter, Arial, sans-serif" font-size="12" font-weight="700">#007AFF</text>
    <text x="238" y="110" text-anchor="middle" fill="#23252B" font-family="Inter, Arial, sans-serif" font-size="12" font-weight="700">#D1D1D6</text>
    <text x="92" y="186" text-anchor="middle" fill="#F5F7FA" font-family="Inter, Arial, sans-serif" font-size="12" font-weight="700">#007AFF</text>
    <text x="238" y="186" text-anchor="middle" fill="#F5F7FA" font-family="Inter, Arial, sans-serif" font-size="12" font-weight="700">#333333</text>
  </g>

  <g transform="translate(426 1422)">
    <rect width="350" height="178" rx="22" fill="#101318" stroke="#2A2D35"/>
    <text x="22" y="36" fill="#F5F7FA" font-family="Inter, Arial, sans-serif" font-size="22" font-weight="700">Forest Green</text>
    <text x="22" y="70" fill="#8F95A3" font-family="Inter, Arial, sans-serif" font-size="13" font-weight="700">LIGHT</text>
    <rect x="22" y="82" width="136" height="44" rx="14" fill="#34C759"/>
    <rect x="170" y="82" width="136" height="44" rx="14" fill="#D1D1D6"/>
    <text x="22" y="146" fill="#8F95A3" font-family="Inter, Arial, sans-serif" font-size="13" font-weight="700">DARK</text>
    <rect x="22" y="158" width="136" height="44" rx="14" fill="#30D158"/>
    <rect x="170" y="158" width="136" height="44" rx="14" fill="#333333"/>
    <text x="92" y="110" text-anchor="middle" fill="#F5F7FA" font-family="Inter, Arial, sans-serif" font-size="12" font-weight="700">#34C759</text>
    <text x="238" y="110" text-anchor="middle" fill="#23252B" font-family="Inter, Arial, sans-serif" font-size="12" font-weight="700">#D1D1D6</text>
    <text x="92" y="186" text-anchor="middle" fill="#0C2914" font-family="Inter, Arial, sans-serif" font-size="12" font-weight="700">#30D158</text>
    <text x="238" y="186" text-anchor="middle" fill="#F5F7FA" font-family="Inter, Arial, sans-serif" font-size="12" font-weight="700">#333333</text>
  </g>

  <g transform="translate(796 1422)">
    <rect width="350" height="178" rx="22" fill="#101318" stroke="#2A2D35"/>
    <text x="22" y="36" fill="#F5F7FA" font-family="Inter, Arial, sans-serif" font-size="22" font-weight="700">Sunset Orange</text>
    <text x="22" y="70" fill="#8F95A3" font-family="Inter, Arial, sans-serif" font-size="13" font-weight="700">LIGHT</text>
    <rect x="22" y="82" width="136" height="44" rx="14" fill="#FF9500"/>
    <rect x="170" y="82" width="136" height="44" rx="14" fill="#D1D1D6"/>
    <text x="22" y="146" fill="#8F95A3" font-family="Inter, Arial, sans-serif" font-size="13" font-weight="700">DARK</text>
    <rect x="22" y="158" width="136" height="44" rx="14" fill="#FF9F0A"/>
    <rect x="170" y="158" width="136" height="44" rx="14" fill="#333333"/>
    <text x="92" y="110" text-anchor="middle" fill="#4A2200" font-family="Inter, Arial, sans-serif" font-size="12" font-weight="700">#FF9500</text>
    <text x="238" y="110" text-anchor="middle" fill="#23252B" font-family="Inter, Arial, sans-serif" font-size="12" font-weight="700">#D1D1D6</text>
    <text x="92" y="186" text-anchor="middle" fill="#4A2300" font-family="Inter, Arial, sans-serif" font-size="12" font-weight="700">#FF9F0A</text>
    <text x="238" y="186" text-anchor="middle" fill="#F5F7FA" font-family="Inter, Arial, sans-serif" font-size="12" font-weight="700">#333333</text>
  </g>

  <g transform="translate(1166 1422)">
    <rect width="350" height="178" rx="22" fill="#101318" stroke="#2A2D35"/>
    <text x="22" y="36" fill="#F5F7FA" font-family="Inter, Arial, sans-serif" font-size="22" font-weight="700">Monochrome</text>
    <text x="22" y="70" fill="#8F95A3" font-family="Inter, Arial, sans-serif" font-size="13" font-weight="700">LIGHT</text>
    <rect x="22" y="82" width="136" height="44" rx="14" fill="#000000"/>
    <rect x="170" y="82" width="136" height="44" rx="14" fill="#D1D1D6"/>
    <text x="22" y="146" fill="#8F95A3" font-family="Inter, Arial, sans-serif" font-size="13" font-weight="700">DARK</text>
    <rect x="22" y="158" width="136" height="44" rx="14" fill="#FFFFFF"/>
    <rect x="170" y="158" width="136" height="44" rx="14" fill="#333333"/>
    <text x="92" y="110" text-anchor="middle" fill="#F5F7FA" font-family="Inter, Arial, sans-serif" font-size="12" font-weight="700">#000000</text>
    <text x="238" y="110" text-anchor="middle" fill="#23252B" font-family="Inter, Arial, sans-serif" font-size="12" font-weight="700">#D1D1D6</text>
    <text x="92" y="186" text-anchor="middle" fill="#23252B" font-family="Inter, Arial, sans-serif" font-size="12" font-weight="700">#FFFFFF</text>
    <text x="238" y="186" text-anchor="middle" fill="#F5F7FA" font-family="Inter, Arial, sans-serif" font-size="12" font-weight="700">#333333</text>
  </g>

  <rect x="40" y="1876" width="1000" height="332" rx="28" fill="#14161B" stroke="#2A2D35"/>
  <text x="56" y="1924" fill="#F5F7FA" font-family="Inter, SF Pro Display, Arial, sans-serif" font-size="26" font-weight="700">Additional Accents</text>
  <text x="56" y="1956" fill="#8F95A3" font-family="Inter, SF Pro Text, Arial, sans-serif" font-size="16" font-weight="500">Small but existing hardcoded colors used in app UI and config.</text>

  <g transform="translate(56 1988)">
    <rect width="288" height="172" rx="22" fill="#101318" stroke="#2A2D35"/>
    <rect x="18" y="18" width="252" height="72" rx="16" fill="#FFD700"/>
    <text x="18" y="120" fill="#8F95A3" font-family="Inter, Arial, sans-serif" font-size="13" font-weight="700" letter-spacing="1.4">PREMIUM GOLD</text>
    <text x="18" y="148" fill="#F5F7FA" font-family="Inter, Arial, sans-serif" font-size="24" font-weight="700">#FFD700</text>
  </g>

  <g transform="translate(370 1988)">
    <rect width="288" height="172" rx="22" fill="#101318" stroke="#2A2D35"/>
    <rect x="18" y="18" width="252" height="72" rx="16" fill="#888888"/>
    <text x="18" y="120" fill="#8F95A3" font-family="Inter, Arial, sans-serif" font-size="13" font-weight="700" letter-spacing="1.4">UTILITY GRAY</text>
    <text x="18" y="148" fill="#F5F7FA" font-family="Inter, Arial, sans-serif" font-size="24" font-weight="700">#888888</text>
  </g>

  <g transform="translate(684 1988)">
    <rect width="288" height="172" rx="22" fill="#101318" stroke="#2A2D35"/>
    <rect x="18" y="18" width="252" height="72" rx="16" fill="#E6F4FE"/>
    <text x="18" y="120" fill="#8F95A3" font-family="Inter, Arial, sans-serif" font-size="13" font-weight="700" letter-spacing="1.4">SPLASH BG</text>
    <text x="18" y="148" fill="#F5F7FA" font-family="Inter, Arial, sans-serif" font-size="24" font-weight="700">#E6F4FE</text>
  </g>

  <rect x="1070" y="1876" width="490" height="332" rx="28" fill="#14161B" stroke="#2A2D35"/>
  <text x="1088" y="1924" fill="#F5F7FA" font-family="Inter, SF Pro Display, Arial, sans-serif" font-size="26" font-weight="700">App Store Reference</text>
  <text x="1088" y="1956" fill="#8F95A3" font-family="Inter, SF Pro Text, Arial, sans-serif" font-size="16" font-weight="500">This is from the current screenshot planning docs, not the core in-app palette.</text>
  <rect x="1088" y="1988" width="454" height="120" rx="22" fill="#4845FF"/>
  <text x="1112" y="2144" fill="#8F95A3" font-family="Inter, Arial, sans-serif" font-size="13" font-weight="700" letter-spacing="1.4">MARKETING INDIGO</text>
  <text x="1112" y="2174" fill="#F5F7FA" font-family="Inter, Arial, sans-serif" font-size="28" font-weight="700">#4845FF</text>
</svg>
